<svg width="272" height="97" viewBox="0 0 272 97" fill="none" xmlns="http://www.w3.org/2000/svg">
<path d="M76.0365 33.3748C75.1445 23.5258 68.0221 14.8831 58.4363 12.3079C49.5921 9.92774 37.4875 11.6303 30.5138 17.7526C23.2895 24.0956 20.2227 34.6872 22.636 43.8381C25.3207 54.0294 33.2556 59.9942 43.2286 61.9449C52.9147 63.8391 62.8999 58.3345 66.9935 49.5908C71.4242 40.1268 69.0611 30.9861 60.2324 25.2386C53.1809 20.6477 42.5458 20.6614 36.6197 27.2098C29.9572 34.5743 31.8294 46.3688 41.4584 50.4635C46.5789 52.64 51.2413 52.5253 55.7222 49.0176C59.5911 45.989 61.5359 39.8068 59.6775 35.2296C57.6376 30.2179 53.2345 28.2433 47.9498 28.7497C43.1768 29.2066 38.9155 34.1876 40.2207 38.8931C41.7333 44.348 52.3045 44.7057 50.8402 38.082C50.6449 37.2111 49.3864 37.4472 49.4745 38.3216C49.803 41.6137 46.5495 41.1158 44.864 40.0977C41.8474 38.2805 44.6272 34.5572 46.655 33.3885C49.739 31.6124 53.6563 33.267 55.1465 36.1656C56.5157 38.8332 55.2952 42.0346 53.7151 44.2625C50.7728 48.4187 43.8337 47.8113 39.9354 45.5526C35.0396 42.7174 34.4208 36.7867 35.7986 31.8981C37.3648 26.3439 44.8087 23.791 49.9482 24.0904C55.781 24.4327 60.9844 29.3606 63.4237 34.3416C65.7194 39.03 63.4703 45.1454 60.7545 49.0946C57.9764 53.1328 53.0824 55.4667 48.7139 57.4002C36.1633 62.9476 25.7771 49.8047 25.8463 38.3284C25.9085 28.3545 33.7898 19.5389 43.4707 17.7782C53.9243 15.8772 63.9527 17.6721 68.7896 27.9729C73.2308 37.4215 71.2254 51.0812 63.4755 58.2951C62.5057 59.1952 63.8057 60.7454 64.8205 59.8642C72.9421 52.8128 77.0098 44.129 76.0365 33.3748Z" fill="#1CA538"/>
<path d="M40.7531 67.3982C40.5975 67.3195 45.1164 70.1051 46.126 72.8103C47.1321 75.5173 44.2537 85.5836 44.1587 86.2937C44.0601 87.0055 43.87 87.7653 44.6375 87.0055C45.4034 86.2475 47.8011 83.2548 48.9075 83.3045C50.0087 83.3489 53.6563 86.6736 53.6079 86.2937C53.5578 85.9139 51.2102 80.4076 50.6328 74.234C50.9197 72.5708 52.7435 67.8242 57.2503 63.5516C55.6668 64.4055 50.6794 70.2933 49.4313 70.8631C48.1883 71.4329 42.8172 68.4402 40.7531 67.3982Z" fill="#65320B"/>
<path d="M103.232 67C102.816 67 102.448 66.904 102.128 66.712C101.808 66.488 101.648 66.168 101.648 65.752V33.112C101.648 32.792 101.76 32.52 101.984 32.296C102.24 32.072 102.576 31.944 102.992 31.912H111.824C113.68 31.912 115.36 32.248 116.864 32.92C118.368 33.592 119.552 34.68 120.416 36.184C121.28 37.656 121.712 39.624 121.712 42.088V42.568C121.712 45.064 121.264 47.064 120.368 48.568C119.504 50.04 118.304 51.128 116.768 51.832C115.264 52.504 113.584 52.84 111.728 52.84H104.816V65.752C104.816 66.168 104.64 66.488 104.288 66.712C103.968 66.904 103.616 67 103.232 67ZM104.816 50.056H111.728C113.872 50.056 115.536 49.464 116.72 48.28C117.936 47.064 118.544 45.208 118.544 42.712V42.184C118.544 39.656 117.936 37.8 116.72 36.616C115.536 35.432 113.872 34.84 111.728 34.84H104.816V50.056ZM136.561 67.288C134.705 67.288 133.025 66.952 131.521 66.28C130.017 65.608 128.817 64.52 127.921 63.016C127.025 61.512 126.577 59.512 126.577 57.016V42.184C126.577 39.688 127.025 37.688 127.921 36.184C128.817 34.68 130.001 33.592 131.473 32.92C132.977 32.248 134.673 31.912 136.561 31.912C138.449 31.912 140.145 32.248 141.649 32.92C143.153 33.592 144.353 34.68 145.249 36.184C146.145 37.688 146.593 39.688 146.593 42.184V57.016C146.593 59.512 146.145 61.512 145.249 63.016C144.353 64.52 143.153 65.608 141.649 66.28C140.145 66.952 138.449 67.288 136.561 67.288ZM136.561 64.36C138.705 64.36 140.369 63.768 141.553 62.584C142.769 61.4 143.377 59.544 143.377 57.016V42.184C143.377 39.656 142.769 37.8 141.553 36.616C140.369 35.432 138.705 34.84 136.561 34.84C134.417 34.84 132.753 35.432 131.569 36.616C130.385 37.8 129.793 39.656 129.793 42.184V57.016C129.793 59.544 130.385 61.4 131.569 62.584C132.753 63.768 134.417 64.36 136.561 64.36ZM155.076 67C154.66 67 154.292 66.904 153.972 66.712C153.652 66.488 153.492 66.168 153.492 65.752V33.448C153.492 32.872 153.652 32.472 153.972 32.248C154.292 32.024 154.66 31.912 155.076 31.912C155.46 31.912 155.796 32.024 156.084 32.248C156.404 32.44 156.692 32.712 156.948 33.064C157.204 33.384 157.428 33.752 157.62 34.168L165.876 50.056L174.084 34.168C174.34 33.752 174.58 33.384 174.804 33.064C175.06 32.712 175.348 32.44 175.668 32.248C175.988 32.024 176.324 31.912 176.676 31.912C177.124 31.912 177.492 32.024 177.78 32.248C178.1 32.472 178.26 32.872 178.26 33.448V65.752C178.26 66.168 178.1 66.488 177.78 66.712C177.46 66.904 177.092 67 176.676 67C176.292 67 175.924 66.904 175.572 66.712C175.252 66.488 175.092 66.168 175.092 65.752V38.776L167.124 53.848C166.932 54.232 166.724 54.504 166.5 54.664C166.276 54.824 166.052 54.904 165.828 54.904C165.636 54.904 165.428 54.824 165.204 54.664C164.98 54.504 164.756 54.232 164.532 53.848L156.66 38.68V65.752C156.66 66.168 156.484 66.488 156.132 66.712C155.812 66.904 155.46 67 155.076 67ZM187.138 67C186.722 67 186.354 66.904 186.034 66.712C185.714 66.488 185.554 66.168 185.554 65.752V33.112C185.554 32.696 185.714 32.392 186.034 32.2C186.354 32.008 186.722 31.912 187.138 31.912C187.522 31.912 187.874 32.008 188.194 32.2C188.546 32.392 188.722 32.696 188.722 33.112V65.752C188.722 66.168 188.546 66.488 188.194 66.712C187.874 66.904 187.522 67 187.138 67ZM197.447 67C196.999 67 196.647 66.888 196.391 66.664C196.135 66.44 196.007 66.152 196.007 65.8V33.112C196.007 32.76 196.135 32.472 196.391 32.248C196.647 32.024 196.999 31.912 197.447 31.912H205.943C207.831 31.912 209.527 32.248 211.031 32.92C212.567 33.592 213.767 34.68 214.631 36.184C215.527 37.688 215.975 39.688 215.975 42.184V56.728C215.975 59.224 215.527 61.224 214.631 62.728C213.767 64.232 212.567 65.32 211.031 65.992C209.527 66.664 207.831 67 205.943 67H197.447ZM199.175 64.072H205.943C208.087 64.072 209.767 63.48 210.983 62.296C212.199 61.112 212.807 59.256 212.807 56.728V42.184C212.807 39.656 212.199 37.8 210.983 36.616C209.767 35.432 208.087 34.84 205.943 34.84H199.175V64.072ZM232.467 67.288C230.611 67.288 228.931 66.952 227.427 66.28C225.923 65.608 224.723 64.52 223.827 63.016C222.931 61.512 222.483 59.512 222.483 57.016V42.184C222.483 39.688 222.931 37.688 223.827 36.184C224.723 34.68 225.907 33.592 227.379 32.92C228.883 32.248 230.579 31.912 232.467 31.912C234.355 31.912 236.051 32.248 237.555 32.92C239.059 33.592 240.259 34.68 241.155 36.184C242.051 37.688 242.499 39.688 242.499 42.184V57.016C242.499 59.512 242.051 61.512 241.155 63.016C240.259 64.52 239.059 65.608 237.555 66.28C236.051 66.952 234.355 67.288 232.467 67.288ZM232.467 64.36C234.611 64.36 236.275 63.768 237.459 62.584C238.675 61.4 239.283 59.544 239.283 57.016V42.184C239.283 39.656 238.675 37.8 237.459 36.616C236.275 35.432 234.611 34.84 232.467 34.84C230.323 34.84 228.659 35.432 227.475 36.616C226.291 37.8 225.699 39.656 225.699 42.184V57.016C225.699 59.544 226.291 61.4 227.475 62.584C228.659 63.768 230.323 64.36 232.467 64.36ZM267.734 67.096C267.382 67.096 267.062 66.92 266.774 66.568C266.486 66.184 266.246 65.8 266.054 65.416L258.662 51.016H252.566V65.752C252.566 66.168 252.39 66.488 252.038 66.712C251.718 66.904 251.366 67 250.982 67C250.566 67 250.198 66.904 249.878 66.712C249.558 66.488 249.398 66.168 249.398 65.752V33.112C249.398 32.792 249.51 32.52 249.734 32.296C249.958 32.072 250.246 31.944 250.598 31.912H259.094C260.982 31.912 262.71 32.2 264.278 32.776C265.846 33.352 267.094 34.328 268.022 35.704C268.982 37.08 269.462 38.968 269.462 41.368C269.462 43.352 269.126 44.984 268.454 46.264C267.814 47.544 266.918 48.536 265.766 49.24C264.646 49.912 263.382 50.376 261.974 50.632L269.366 64.84C269.462 64.936 269.51 65.048 269.51 65.176C269.542 65.272 269.558 65.368 269.558 65.464C269.558 65.72 269.462 65.976 269.27 66.232C269.11 66.488 268.886 66.696 268.598 66.856C268.31 67.016 268.022 67.096 267.734 67.096ZM252.566 48.28H259.094C261.238 48.28 262.966 47.768 264.278 46.744C265.622 45.688 266.294 43.96 266.294 41.56C266.294 39.128 265.622 37.4 264.278 36.376C262.966 35.352 261.238 34.84 259.094 34.84H252.566V48.28Z" fill="white"/>
</svg>
